<svg width="1032" height="144" fill="none" xmlns="http://www.w3.org/2000/svg"><path fill-rule="evenodd" clip-rule="evenodd" d="M1031.92 99.686c0 5.349-1.08 10.345-3.22 14.835-2.15 4.511-5.17 8.527-9 11.945-3.83 3.423-8.44 6.132-13.72 8.025-5.31 1.909-11.17 2.869-17.42 2.869-6.025 0-11.565-.747-16.449-2.229-4.901-1.482-9.369-3.386-13.278-5.663-3.924-2.282-7.342-4.805-10.157-7.503a85.973 85.973 0 01-4.975-5.14c-.944-1.067-.822-2.699.213-3.68l11.064-10.409a2.664 2.664 0 013.701.048c2.314 2.315 4.889 4.997 6.98 6.527.943.693 1.893 1.403 2.879 2.069 2.586 1.744 5.519 3.216 8.713 4.357 3.22 1.168 6.9 1.754 10.942 1.754 7.486 0 13.147-1.807 16.827-5.364 3.7-3.584 5.57-7.956 5.57-13.006 0-2.8-.53-5.327-1.58-7.524-1.06-2.23-2.85-4.207-5.33-5.877-2.39-1.61-5.548-3.076-9.377-4.362-3.807-1.269-8.531-2.484-14.05-3.615-5.546-1.11-10.393-2.847-14.402-5.178-4.01-2.309-7.364-5.092-9.993-8.27a33.415 33.415 0 01-5.908-10.516 36.564 36.564 0 01-1.978-11.838c0-4.629.842-9.103 2.511-13.305 1.664-4.17 4.25-7.924 7.689-11.14 3.477-3.23 7.876-5.87 13.075-7.811 5.231-1.973 11.485-2.965 18.609-2.965 6.388 0 11.954.752 16.524 2.224 4.55 1.455 8.43 3.204 11.5 5.177.31.192.61.39.91.592 3.74 2.603 6.24 4.997 7.7 6.586.98 1.056.89 2.698-.15 3.695l-10.51 10.079c-1 .965-2.59 1.008-3.62.069-1.47-1.339-3.6-3.168-5.7-4.447-.29-.192-.6-.374-.92-.55-1.89-1.082-4.08-2.069-6.557-2.948-2.938-1.035-6.271-1.563-9.918-1.563-3.295 0-6.207.48-8.644 1.397-2.426.902-4.484 2.112-6.121 3.573-1.637 1.461-2.874 3.13-3.668 4.98-.8 1.819-1.195 3.579-1.195 5.226 0 2.427.432 4.592 1.291 6.463.858 1.899 2.324 3.674 4.356 5.29 1.978 1.563 4.703 2.976 8.121 4.213 3.349 1.189 7.614 2.32 12.685 3.333 4.71.986 9.3 2.49 13.66 4.463 4.31 1.946 8.17 4.527 11.47 7.647 3.27 3.108 5.92 6.932 7.89 11.38 1.96 4.436 2.96 9.853 2.96 16.087zM869.287 8.05H853.29a2.667 2.667 0 00-2.666 2.666v122.647a2.671 2.671 0 002.666 2.666h15.997c1.466 0 2.666-1.2 2.666-2.666V10.716a2.67 2.67 0 00-2.666-2.666zm-96.312 0h-22.56a2.66 2.66 0 00-2.336 1.376l-30.761 57.281-30.762-57.281a2.66 2.66 0 00-2.335-1.376H661.66a2.669 2.669 0 00-2.666 2.549l-5.535 122.652a2.662 2.662 0 002.661 2.778h16.012a2.67 2.67 0 002.666-2.554l2.533-96.096 33.449 59.947a2.663 2.663 0 002.33 1.376h8.415c.97 0 1.861-.528 2.33-1.376l33.454-59.947 2.528 96.096a2.673 2.673 0 002.666 2.554h16.012c1.52 0 2.736-1.269 2.661-2.778l-5.535-122.652a2.669 2.669 0 00-2.666-2.549zM530.35 12.177c-1.019-1.808-3.631-1.808-4.655 0l-68.54 121.862c-.496.891.144 1.989 1.162 1.989h15.298c.491 0 .933-.266 1.168-.688l29.247-52.636-14.152 51.645c-.234.842.4 1.679 1.28 1.679h13.816c.602 0 1.141-.41 1.29-.986l13.757-52.338v51.991a1.34 1.34 0 001.333 1.333h13.331c.736 0 1.333-.597 1.333-1.333V82.704l13.768 52.338c.154.576.682.986 1.29.986h13.816c.874 0 1.514-.837 1.285-1.679l-14.162-51.645 29.258 52.642c.239.421.682.682 1.162.682h15.298c1.018 0 1.658-1.098 1.157-1.989L530.35 12.177zM410.721 114.699h-61.32V10.716a2.67 2.67 0 00-2.666-2.666h-15.997a2.667 2.667 0 00-2.666 2.666v122.647a2.67 2.67 0 002.666 2.666h79.983c1.466 0 2.666-1.2 2.666-2.666v-15.997c0-1.472-1.2-2.667-2.666-2.667zM194.694 82.705l16.071-47.993 16.066 47.993h-32.137zm27.775-72.922a2.671 2.671 0 00-2.501-1.733h-18.417a2.672 2.672 0 00-2.496 1.733L153.449 132.43c-.65 1.743.64 3.599 2.49 3.599h17.074a2.662 2.662 0 002.495-1.738l11.257-30.257h48l11.251 30.257a2.665 2.665 0 002.501 1.738h17.063c1.861 0 3.146-1.856 2.501-3.599L222.469 9.783zM116.278 8.05H99.21a2.66 2.66 0 00-2.495 1.733l-35.257 99.584L26.207 9.783a2.672 2.672 0 00-2.501-1.733H6.643c-2.106 0-3.231 1.616-2.496 3.594l45.601 122.647a2.674 2.674 0 002.501 1.738h18.418a2.67 2.67 0 002.5-1.738L118.78 11.644a2.666 2.666 0 00-2.501-3.594z" fill="#1E0037"/></svg>